<svg xmlns="http://www.w3.org/2000/svg"
viewBox="0 0 4088 4105">

<style>
.clean-sketch{
  fill:none;
  stroke:#2b2645;
  stroke-linecap:round;
  stroke-linejoin:round;
}

.tick{
  fill:none;
  stroke:#2b2645;
  stroke-width:18;
  stroke-linecap:round;
}
</style>

<g>

<path class="clean-sketch" stroke-width="4.2"
d="M2035 56C3130 56 4016 927 4016 2052C4016 3177 3130 4048 2035 4048C940 4048 72 3177 72 2052C72 927 940 56 2035 56Z"/>

<path class="clean-sketch" stroke-width="5.3"
d="M2044 82C3110 82 3970 930 3970 2052C3970 3174 3110 4012 2044 4012C978 4012 128 3174 128 2052C128 930 978 82 2044 82Z"/>

<path class="clean-sketch" stroke-width="6.2"
d="M2055 42C3145 42 4032 915 4032 2052C4032 3189 3145 4062 2055 4062C965 4062 82 3189 82 2052C82 915 965 42 2055 42Z"/>

<path class="clean-sketch" stroke-width="4.8"
d="M2028 96C3095 96 3952 945 3952 2052C3952 3159 3095 4002 2028 4002C1506 4002 112 3159 112 2052C112 945 1506 96 2028 96Z"/>

<path class="clean-sketch" stroke-width="5.0"
d="M2062 32C3160 32 4050 905 4050 2052C4050 3199 3160 4072 2062 4072C964 4072 68 3199 68 2052C68 905 964 32 2062 32Z"/>

<path class="clean-sketch" stroke-width="4.0"
d="M1998 14C3120 14 4076 900 4076 2030C4076 3160 3120 4066 1998 4066C876 4066 22 3160 22 2030C22 900 876 14 1998 14Z"/>

<path class="clean-sketch" stroke-width="5.6"
d="M2080 62C3170 62 4002 925 4002 2065C4002 3205 3170 4068 2080 4068C990 4068 152 3205 152 2065C152 925 990 62 2080 62Z"/>

</g>

<g>

<path class="tick" d="M646 398 L1055 866"/>
<path class="tick" d="M3630 714 L3454 895"/>
<path class="tick" d="M589 3493 L752 3300"/>
<path class="tick" d="M2293 3666 L2355 4089"/>

<path class="tick" d="M1120 280 L1370 650"/>
<path class="tick" d="M1600 180 L1750 560"/>
<path class="tick" d="M2680 220 L2920 620"/>

<path class="tick" d="M3400 1220 L3140 1440"/>
<path class="tick" d="M3780 1700 L3470 1760"/>

<path class="tick" d="M3740 2580 L3470 2450"/>
<path class="tick" d="M3340 3240 L3010 3000"/>

<path class="tick" d="M2510 3880 L2430 3550"/>
<path class="tick" d="M1800 3920 L1700 3560"/>

<path class="tick" d="M780 3540 L980 3250"/>
<path class="tick" d="M320 2870 L640 2680"/>

<path class="tick" d="M250 1700 L610 1650"/>
<path class="tick" d="M420 920 L760 1120"/>

</g>

</svg>