<svg xmlns="http://www.w3.org/2000/svg" viewBox="0 0 4088 4105" width="100%" height="100%">
  <g stroke="#2b2645" fill="none" stroke-linecap="round" stroke-linejoin="round">
    <path d="M2035.4 56.2 C2570.1 56.2, 3131.5 161.8, 3514.3 544.6 C3897.1 927.4, 4016.8 1500.5, 4016.8 2052.5 C4016.8 2604.5, 3897.1 3177.6, 3514.3 3560.4 C3131.5 3943.2, 2570.1 4048.8, 2035.4 4048.8 C1500.7 4048.8, 939.3 3943.2, 556.5 3560.4 C173.7 3177.6, 72 2604.5, 72 2052.5 C72 1500.5, 173.7 927.4, 556.5 544.6 C939.3 161.8, 1500.7 56.2, 2035.4 56.2" stroke-width="4.2" opacity="0.78"/>
    
    <path d="M2044.2 82.5 C2560.4 82.5, 3110.1 180.3, 3485.4 555.6 C3860.7 930.9, 3970.5 1480.2, 3970.5 2052.5 C3970.5 2624.8, 3860.7 3174.1, 3485.4 3549.4 C3110.1 3924.7, 2560.4 4012.5, 2044.2 4012.5 C1528 4012.5, 978.3 3924.7, 603 3549.4 C227.7 3174.1, 127.9 2624.8, 127.9 2052.5 C127.9 1480.2, 227.7 930.9, 603 555.6 C978.3 180.3, 1528 82.5, 2044.2 82.5" stroke-width="5.3" opacity="0.82"/>
    
    <path d="M2055.8 42.1 C2585.3 42.1, 3145.2 145.6, 3530.1 530.5 C3915 915.4, 4032.4 1475.1, 4032.4 2052.5 C4032.4 2629.9, 3915 3189.6, 3530.1 3574.5 C3145.2 3959.4, 2585.3 4062.9, 2055.8 4062.9 C1526.3 4062.9, 966.4 3959.4, 581.5 3574.5 C196.6 3189.6, 79.2 2629.9, 79.2 2052.5 C79.2 1475.1, 196.6 915.4, 581.5 530.5 C966.4 145.6, 1526.3 42.1, 2055.8 42.1" stroke-width="6.2" opacity="0.85"/>
    
    <path d="M2028.1 96.7 C2550.4 96.7, 3095.3 195.2, 3470.5 570.4 C3845.7 945.6, 3952.9 1495.4, 3952.9 2052.5 C3952.9 2609.6, 3845.7 3159.4, 3470.5 3534.6 C3095.3 3909.8, 2550.4 4008.3, 2028.1 4008.3 C1505.8 4008.3, 960.9 3909.8, 585.7 3534.6 C210.5 3159.4, 103.3 2609.6, 103.3 2052.5 C103.3 1495.4, 210.5 945.6, 585.7 570.4 C960.9 195.2, 1505.8 96.7, 2028.1 96.7" stroke-width="4.8" opacity="0.72"/>
    
    <path d="M2062.5 32.8 C2595.1 32.8, 3160.8 135.4, 3545.4 520 C3930 904.6, 4050.2 1465.2, 4050.2 2052.5 C4050.2 2639.8, 3930 3199.4, 3545.4 3584 C3160.8 3968.6, 2595.1 4071.2, 2062.5 4071.2 C1529.9 4071.2, 964.2 3968.6, 579.6 3584 C195 3199.4, 74.8 2639.8, 74.8 2052.5 C74.8 1465.2, 195 904.6, 579.6 520 C964.2 135.4, 1529.9 32.8, 2062.5 32.8" stroke-width="5.0" opacity="0.79"/>
    
    <path d="M1998.4 14.5 C2540.3 14.5, 3120.9 120.1, 3510.5 510.5 C3900.1 900.9, 4076.6 1460.5, 4076.6 2030.5 C4076.6 2600.5, 3900.1 3180.1, 3510.5 3570.5 C3120.9 3960.9, 2540.3 4066.5, 1998.4 4066.5 C1456.5 4066.5, 890.9 3960.1, 500.5 3570.5 C110.1 3180.1, 11.4 2600.5, 11.4 2030.5 C11.4 1460.5, 110.1 900.9, 500.5 510.5 C890.9 120.1, 1456.5 14.5, 1998.4 14.5" stroke-width="4.0" opacity="0.68"/>
    
    <path d="M2080.6 62.9 C2610.2 62.9, 3170.5 165.4, 3550.2 545.1 C3930 924.9, 4002.5 1490.2, 4002.5 2065.2 C4002.5 2640.2, 3930 3205.5, 3550.2 3585.2 C3170.5 3965, 2610.2 4067.5, 2080.6 4067.5 C1551 4067.5, 1000.5 3965, 620.8 3585.2 C241 3205.5, 152.5 2640.2, 152.5 2065.2 C152.5 1490.2, 241 924.9, 620.8 545.1 C1000.5 165.4, 1551 62.9, 2080.6 62.9" stroke-width="5.6" opacity="0.74"/>

    <path d="M 646 398 L 1055 866" stroke-width="18.5"/>
    <path d="M 3630 714 L 3454 895" stroke-width="18.5"/>
    <path d="M 589 3493 L 752 3300" stroke-width="18.5"/>
    <path d="M 2293 3666 L 2355 4089" stroke-width="18.5"/>
  </g>
</svg>
