<svg xmlns="http://www.w3.org/2000/svg" viewBox="0 0 4088 4105" width="100%" height="100%">
  <style>
    .raw-sketch {
      fill: none;
      stroke: #2b2645;
      stroke-linecap: round;
      stroke-linejoin: round;
    }
    .tick-line {
      fill: none;
      stroke: #2b2645;
      stroke-width: 18.5;
      stroke-linecap: round;
    }
  </style>

  <g id="repaired-original-lines">
    <path class="raw-sketch" stroke-width="4.2" opacity="0.78" 
          d="M 2044,68 C 3115,68 3985,938 3985,2052 C 3985,3166 3115,4036 2044,4036 C 973,4036 103,3166 103,2052 C 103,938 973,68 2044,68 Z" />

    <path class="raw-sketch" stroke-width="5.3" opacity="0.82" 
          d="M 2035,102 C 3090,97 3960,950 3960,2052 C 3960,3154 3090,4007 2035,4007 C 980,4007 141,3154 141,2052 C 141,950 980,107 2035,102 Z" />

    <path class="raw-sketch" stroke-width="6.2" opacity="0.85" 
          d="M 2052,48 C 3135,43 4012,925 4012,2052 C 4012,3179 3135,4061 2052,4061 C 969,4061 72,3179 72,2052 C 72,925 969,53 2052,48 Z" />

    <path class="raw-sketch" stroke-width="4.8" opacity="0.72" 
          d="M 2044,88 C 3148,93 4032,943 4032,2052 C 4032,3161 3148,4011 2044,4011 C 940,4011 56,3161 56,2052 C 56,943 940,83 2044,88 Z" />

    <path class="raw-sketch" stroke-width="5.0" opacity="0.79" 
          d="M 2058,42 C 3140,42 4022,932 4022,2060 C 4022,3188 3140,4078 2058,4078 C 976,4078 94,3188 94,2060 C 94,932 976,42 2058,42 Z" />

    <path class="raw-sketch" stroke-width="4.0" opacity="0.68" 
          d="M 2032,16 C 3152,21 4058,918 4058,2042 C 4058,3176 3152,4092 2032,4092 C 912,4092 6,3176 6,2042 C 6,918 912,16 2032,16 Z" />

    <path class="raw-sketch" stroke-width="5.6" opacity="0.74" 
          d="M 2054,54 C 3136,49 4010,936 4010,2058 C 4010,3180 3136,4056 2054,4056 C 972,4056 96,3180 96,2058 C 96,936 972,54 2054,54 Z" />
  </g>

  <g id="original-ticks">
    <path class="tick-line" d="M 646 398 L 1055 866" />
    <path class="tick-line" d="M 3630 714 L 3454 895" />
    <path class="tick-line" d="M 589 3493 L 752 3300" />
    <path class="tick-line" d="M 2293 3666 L 2355 4089" />
  </g>
</svg>
